<?xml version="1.0" encoding="UTF-8" standalone="no"?>
<!DOCTYPE svg PUBLIC "-//W3C//DTD SVG 1.1//EN"
 "http://www.w3.org/Graphics/SVG/1.1/DTD/svg11.dtd">
<!-- Generated by graphviz version 14.1.1 (20251213.1925)
 -->
<!-- Title: main Pages: 1 -->
<svg width="384pt" height="2790pt"
 viewBox="0.00 0.00 384.00 2790.00" xmlns="http://www.w3.org/2000/svg" xmlns:xlink="http://www.w3.org/1999/xlink">
<g id="graph0" class="graph" transform="scale(1 1) rotate(0) translate(4 2785.5)">
<title>main</title>
<polygon fill="white" stroke="none" points="-4,4 -4,-2785.5 380.25,-2785.5 380.25,4 -4,4"/>
<!-- n0 -->
<g id="node1" class="node">
<title>n0</title>
<polygon fill="none" stroke="black" points="278.88,-2781.5 218.62,-2781.5 218.62,-2745.5 278.88,-2745.5 278.88,-2781.5"/>
<text xml:space="preserve" text-anchor="middle" x="248.75" y="-2758.45" font-family="Times New Roman,serif" font-size="14.00">ENTRY</text>
</g>
<!-- n2 -->
<g id="node3" class="node">
<title>n2</title>
<polygon fill="none" stroke="black" points="299.88,-2708.5 197.62,-2708.5 197.62,-2672.5 299.88,-2672.5 299.88,-2708.5"/>
<text xml:space="preserve" text-anchor="middle" x="248.75" y="-2685.45" font-family="Times New Roman,serif" font-size="14.00">dim x, yv as int</text>
</g>
<!-- n0&#45;&gt;n2 -->
<g id="edge1" class="edge">
<title>n0&#45;&gt;n2</title>
<path fill="none" stroke="black" d="M248.75,-2745.31C248.75,-2737.73 248.75,-2728.6 248.75,-2720.04"/>
<polygon fill="black" stroke="black" points="252.25,-2720.04 248.75,-2710.04 245.25,-2720.04 252.25,-2720.04"/>
</g>
<!-- n1 -->
<g id="node2" class="node">
<title>n1</title>
<polygon fill="none" stroke="black" points="157.75,-36 103.75,-36 103.75,0 157.75,0 157.75,-36"/>
<text xml:space="preserve" text-anchor="middle" x="130.75" y="-12.95" font-family="Times New Roman,serif" font-size="14.00">EXIT</text>
</g>
<!-- n3 -->
<g id="node4" class="node">
<title>n3</title>
<polygon fill="none" stroke="black" points="287.88,-2635.5 209.62,-2635.5 209.62,-2599.5 287.88,-2599.5 287.88,-2635.5"/>
<text xml:space="preserve" text-anchor="middle" x="248.75" y="-2612.45" font-family="Times New Roman,serif" font-size="14.00">dim i as int</text>
</g>
<!-- n2&#45;&gt;n3 -->
<g id="edge2" class="edge">
<title>n2&#45;&gt;n3</title>
<path fill="none" stroke="black" d="M248.75,-2672.31C248.75,-2664.73 248.75,-2655.6 248.75,-2647.04"/>
<polygon fill="black" stroke="black" points="252.25,-2647.04 248.75,-2637.04 245.25,-2647.04 252.25,-2647.04"/>
</g>
<!-- n4 -->
<g id="node5" class="node">
<title>n4</title>
<polygon fill="none" stroke="black" points="293.12,-2562.5 204.38,-2562.5 204.38,-2526.5 293.12,-2526.5 293.12,-2562.5"/>
<text xml:space="preserve" text-anchor="middle" x="248.75" y="-2539.45" font-family="Times New Roman,serif" font-size="14.00">(x = (a + b));</text>
</g>
<!-- n3&#45;&gt;n4 -->
<g id="edge3" class="edge">
<title>n3&#45;&gt;n4</title>
<path fill="none" stroke="black" d="M248.75,-2599.31C248.75,-2591.73 248.75,-2582.6 248.75,-2574.04"/>
<polygon fill="black" stroke="black" points="252.25,-2574.04 248.75,-2564.04 245.25,-2574.04 252.25,-2574.04"/>
</g>
<!-- n5 -->
<g id="node6" class="node">
<title>n5</title>
<polygon fill="none" stroke="black" points="281.88,-2489.5 215.62,-2489.5 215.62,-2453.5 281.88,-2453.5 281.88,-2489.5"/>
<text xml:space="preserve" text-anchor="middle" x="248.75" y="-2466.45" font-family="Times New Roman,serif" font-size="14.00">if (x &gt; 0)</text>
</g>
<!-- n4&#45;&gt;n5 -->
<g id="edge4" class="edge">
<title>n4&#45;&gt;n5</title>
<path fill="none" stroke="black" d="M248.75,-2526.31C248.75,-2518.73 248.75,-2509.6 248.75,-2501.04"/>
<polygon fill="black" stroke="black" points="252.25,-2501.04 248.75,-2491.04 245.25,-2501.04 252.25,-2501.04"/>
</g>
<!-- n6 -->
<g id="node7" class="node">
<title>n6</title>
<polygon fill="none" stroke="black" points="355.12,-2401 260.38,-2401 260.38,-2365 355.12,-2365 355.12,-2401"/>
<text xml:space="preserve" text-anchor="middle" x="307.75" y="-2377.95" font-family="Times New Roman,serif" font-size="14.00">(yv = (x * 2));</text>
</g>
<!-- n5&#45;&gt;n6 -->
<g id="edge5" class="edge">
<title>n5&#45;&gt;n6</title>
<path fill="none" stroke="black" d="M260.41,-2453.41C268.76,-2441.17 280.16,-2424.45 289.68,-2410.49"/>
<polygon fill="black" stroke="black" points="292.32,-2412.83 295.06,-2402.6 286.54,-2408.89 292.32,-2412.83"/>
<text xml:space="preserve" text-anchor="middle" x="296.28" y="-2422.2" font-family="Times New Roman,serif" font-size="14.00">True</text>
</g>
<!-- n8 -->
<g id="node9" class="node">
<title>n8</title>
<polygon fill="none" stroke="black" points="271.75,-2239.5 217.75,-2239.5 217.75,-2203.5 271.75,-2203.5 271.75,-2239.5"/>
<text xml:space="preserve" text-anchor="middle" x="244.75" y="-2216.45" font-family="Times New Roman,serif" font-size="14.00">join</text>
</g>
<!-- n5&#45;&gt;n8 -->
<g id="edge6" class="edge">
<title>n5&#45;&gt;n8</title>
<path fill="none" stroke="black" d="M248.47,-2453.06C247.79,-2410.91 246.05,-2303.13 245.21,-2251.26"/>
<polygon fill="black" stroke="black" points="248.72,-2251.38 245.06,-2241.43 241.72,-2251.49 248.72,-2251.38"/>
<text xml:space="preserve" text-anchor="middle" x="261" y="-2333.7" font-family="Times New Roman,serif" font-size="14.00">False</text>
</g>
<!-- n7 -->
<g id="node8" class="node">
<title>n7</title>
<polygon fill="none" stroke="black" points="332.12,-2312.5 267.38,-2312.5 267.38,-2276.5 332.12,-2276.5 332.12,-2312.5"/>
<text xml:space="preserve" text-anchor="middle" x="299.75" y="-2289.45" font-family="Times New Roman,serif" font-size="14.00">(yv = 0);</text>
</g>
<!-- n6&#45;&gt;n7 -->
<g id="edge7" class="edge">
<title>n6&#45;&gt;n7</title>
<path fill="none" stroke="black" d="M306.17,-2364.91C305.09,-2353.26 303.64,-2337.55 302.39,-2324.02"/>
<polygon fill="black" stroke="black" points="305.9,-2323.99 301.49,-2314.36 298.93,-2324.64 305.9,-2323.99"/>
</g>
<!-- n7&#45;&gt;n8 -->
<g id="edge8" class="edge">
<title>n7&#45;&gt;n8</title>
<path fill="none" stroke="black" d="M286.44,-2276.31C279.95,-2267.94 272.02,-2257.7 264.82,-2248.4"/>
<polygon fill="black" stroke="black" points="267.76,-2246.49 258.87,-2240.73 262.23,-2250.77 267.76,-2246.49"/>
</g>
<!-- n9 -->
<g id="node10" class="node">
<title>n9</title>
<polygon fill="none" stroke="black" points="292.12,-2166.5 197.38,-2166.5 197.38,-2130.5 292.12,-2130.5 292.12,-2166.5"/>
<text xml:space="preserve" text-anchor="middle" x="244.75" y="-2143.45" font-family="Times New Roman,serif" font-size="14.00">while (yv &gt; 0)</text>
</g>
<!-- n8&#45;&gt;n9 -->
<g id="edge9" class="edge">
<title>n8&#45;&gt;n9</title>
<path fill="none" stroke="black" d="M244.75,-2203.31C244.75,-2195.73 244.75,-2186.6 244.75,-2178.04"/>
<polygon fill="black" stroke="black" points="248.25,-2178.04 244.75,-2168.04 241.25,-2178.04 248.25,-2178.04"/>
</g>
<!-- n10 -->
<g id="node11" class="node">
<title>n10</title>
<polygon fill="none" stroke="black" points="77.5,-2078 0,-2078 0,-2042 77.5,-2042 77.5,-2078"/>
<text xml:space="preserve" text-anchor="middle" x="38.75" y="-2054.95" font-family="Times New Roman,serif" font-size="14.00">after_while</text>
</g>
<!-- n9&#45;&gt;n10 -->
<g id="edge11" class="edge">
<title>n9&#45;&gt;n10</title>
<path fill="none" stroke="black" d="M203.56,-2130.2C170.36,-2116.26 123.57,-2096.61 88.32,-2081.81"/>
<polygon fill="black" stroke="black" points="89.75,-2078.62 79.17,-2077.97 87.04,-2085.07 89.75,-2078.62"/>
<text xml:space="preserve" text-anchor="middle" x="174.45" y="-2099.2" font-family="Times New Roman,serif" font-size="14.00">False</text>
</g>
<!-- n11 -->
<g id="node12" class="node">
<title>n11</title>
<polygon fill="none" stroke="black" points="327.38,-2078 228.12,-2078 228.12,-2042 327.38,-2042 327.38,-2078"/>
<text xml:space="preserve" text-anchor="middle" x="277.75" y="-2054.95" font-family="Times New Roman,serif" font-size="14.00">(yv = (yv &#45; 1));</text>
</g>
<!-- n9&#45;&gt;n11 -->
<g id="edge10" class="edge">
<title>n9&#45;&gt;n11</title>
<path fill="none" stroke="black" d="M251.27,-2130.41C255.81,-2118.52 261.95,-2102.41 267.18,-2088.7"/>
<polygon fill="black" stroke="black" points="270.3,-2090.36 270.59,-2079.76 263.76,-2087.86 270.3,-2090.36"/>
<text xml:space="preserve" text-anchor="middle" x="276.96" y="-2099.2" font-family="Times New Roman,serif" font-size="14.00">True</text>
</g>
<!-- n13 -->
<g id="node14" class="node">
<title>n13</title>
<polygon fill="none" stroke="black" points="124.5,-1989.5 35,-1989.5 35,-1953.5 124.5,-1953.5 124.5,-1989.5"/>
<text xml:space="preserve" text-anchor="middle" x="79.75" y="-1966.45" font-family="Times New Roman,serif" font-size="14.00">(x = (x + 1));</text>
</g>
<!-- n10&#45;&gt;n13 -->
<g id="edge12" class="edge">
<title>n10&#45;&gt;n13</title>
<path fill="none" stroke="black" d="M46.85,-2041.91C52.49,-2030.02 60.12,-2013.91 66.62,-2000.2"/>
<polygon fill="black" stroke="black" points="69.76,-2001.75 70.88,-1991.22 63.43,-1998.76 69.76,-2001.75"/>
</g>
<!-- n11&#45;&gt;n9 -->
<g id="edge13" class="edge">
<title>n11&#45;&gt;n9</title>
<path fill="none" stroke="black" d="M267.26,-2078.42C264.24,-2083.92 261.12,-2090.1 258.75,-2096 255.82,-2103.31 253.29,-2111.44 251.22,-2119.05"/>
<polygon fill="black" stroke="black" points="247.88,-2117.98 248.81,-2128.54 254.66,-2119.71 247.88,-2117.98"/>
</g>
<!-- n12 -->
<g id="node13" class="node">
<title>n12</title>
<polygon fill="none" stroke="black" points="156.25,-1812.5 95.25,-1812.5 95.25,-1776.5 156.25,-1776.5 156.25,-1812.5"/>
<text xml:space="preserve" text-anchor="middle" x="125.75" y="-1789.45" font-family="Times New Roman,serif" font-size="14.00">after_do</text>
</g>
<!-- n16 -->
<g id="node17" class="node">
<title>n16</title>
<polygon fill="none" stroke="black" points="152.75,-1739.5 98.75,-1739.5 98.75,-1703.5 152.75,-1703.5 152.75,-1739.5"/>
<text xml:space="preserve" text-anchor="middle" x="125.75" y="-1716.45" font-family="Times New Roman,serif" font-size="14.00">if 1</text>
</g>
<!-- n12&#45;&gt;n16 -->
<g id="edge14" class="edge">
<title>n12&#45;&gt;n16</title>
<path fill="none" stroke="black" d="M125.75,-1776.31C125.75,-1768.73 125.75,-1759.6 125.75,-1751.04"/>
<polygon fill="black" stroke="black" points="129.25,-1751.04 125.75,-1741.04 122.25,-1751.04 129.25,-1751.04"/>
</g>
<!-- n14 -->
<g id="node15" class="node">
<title>n14</title>
<polygon fill="none" stroke="black" points="119.75,-1901 65.75,-1901 65.75,-1865 119.75,-1865 119.75,-1901"/>
<text xml:space="preserve" text-anchor="middle" x="92.75" y="-1877.95" font-family="Times New Roman,serif" font-size="14.00">break</text>
</g>
<!-- n13&#45;&gt;n14 -->
<g id="edge15" class="edge">
<title>n13&#45;&gt;n14</title>
<path fill="none" stroke="black" d="M82.32,-1953.41C84.07,-1941.76 86.43,-1926.05 88.46,-1912.52"/>
<polygon fill="black" stroke="black" points="91.89,-1913.26 89.92,-1902.85 84.97,-1912.22 91.89,-1913.26"/>
</g>
<!-- n14&#45;&gt;n12 -->
<g id="edge16" class="edge">
<title>n14&#45;&gt;n12</title>
<path fill="none" stroke="black" d="M97.44,-1864.61C100.34,-1854.52 104.34,-1841.64 108.75,-1830.5 109.74,-1828.01 110.82,-1825.45 111.96,-1822.9"/>
<polygon fill="black" stroke="black" points="115.02,-1824.62 116.11,-1814.08 108.68,-1821.65 115.02,-1824.62"/>
<text xml:space="preserve" text-anchor="middle" x="123.75" y="-1833.7" font-family="Times New Roman,serif" font-size="14.00">break</text>
</g>
<!-- n15 -->
<g id="node16" class="node">
<title>n15</title>
<polygon fill="none" stroke="black" points="210.25,-2078 95.25,-2078 95.25,-2042 210.25,-2042 210.25,-2078"/>
<text xml:space="preserve" text-anchor="middle" x="152.75" y="-2054.95" font-family="Times New Roman,serif" font-size="14.00">do_while (x &gt; 10)</text>
</g>
<!-- n15&#45;&gt;n12 -->
<g id="edge18" class="edge">
<title>n15&#45;&gt;n12</title>
<path fill="none" stroke="black" d="M153.41,-2041.57C154.5,-2003.03 155.11,-1907.88 138.75,-1830.5 138.26,-1828.17 137.64,-1825.79 136.94,-1823.42"/>
<polygon fill="black" stroke="black" points="140.29,-1822.41 133.75,-1814.08 133.67,-1824.67 140.29,-1822.41"/>
<text xml:space="preserve" text-anchor="middle" x="165.94" y="-1922.2" font-family="Times New Roman,serif" font-size="14.00">False</text>
</g>
<!-- n15&#45;&gt;n13 -->
<g id="edge17" class="edge">
<title>n15&#45;&gt;n13</title>
<path fill="none" stroke="black" d="M131.25,-2041.82C125.11,-2036.43 118.63,-2030.25 113.25,-2024 106.72,-2016.42 100.47,-2007.47 95.18,-1999.19"/>
<polygon fill="black" stroke="black" points="98.26,-1997.51 90.04,-1990.83 92.3,-2001.18 98.26,-1997.51"/>
<text xml:space="preserve" text-anchor="middle" x="126" y="-2010.7" font-family="Times New Roman,serif" font-size="14.00">True</text>
</g>
<!-- n17 -->
<g id="node18" class="node">
<title>n17</title>
<polygon fill="none" stroke="black" points="229.75,-1651 175.75,-1651 175.75,-1615 229.75,-1615 229.75,-1651"/>
<text xml:space="preserve" text-anchor="middle" x="202.75" y="-1627.95" font-family="Times New Roman,serif" font-size="14.00">if 2</text>
</g>
<!-- n16&#45;&gt;n17 -->
<g id="edge19" class="edge">
<title>n16&#45;&gt;n17</title>
<path fill="none" stroke="black" d="M140.96,-1703.41C152.07,-1690.93 167.32,-1673.8 179.89,-1659.68"/>
<polygon fill="black" stroke="black" points="182.26,-1662.28 186.3,-1652.48 177.04,-1657.62 182.26,-1662.28"/>
<text xml:space="preserve" text-anchor="middle" x="183.9" y="-1672.2" font-family="Times New Roman,serif" font-size="14.00">True</text>
</g>
<!-- n24 -->
<g id="node25" class="node">
<title>n24</title>
<polygon fill="none" stroke="black" points="148.75,-1093.5 94.75,-1093.5 94.75,-1057.5 148.75,-1057.5 148.75,-1093.5"/>
<text xml:space="preserve" text-anchor="middle" x="121.75" y="-1070.45" font-family="Times New Roman,serif" font-size="14.00">join</text>
</g>
<!-- n16&#45;&gt;n24 -->
<g id="edge20" class="edge">
<title>n16&#45;&gt;n24</title>
<path fill="none" stroke="black" d="M120.6,-1703.11C115.92,-1685.77 109.75,-1658.28 109.75,-1634 109.75,-1634 109.75,-1634 109.75,-1147.5 109.75,-1133.33 112.1,-1117.8 114.72,-1104.88"/>
<polygon fill="black" stroke="black" points="118.09,-1105.87 116.82,-1095.35 111.25,-1104.36 118.09,-1105.87"/>
<text xml:space="preserve" text-anchor="middle" x="124" y="-1362.45" font-family="Times New Roman,serif" font-size="14.00">False</text>
</g>
<!-- n18 -->
<g id="node19" class="node">
<title>n18</title>
<polygon fill="none" stroke="black" points="229.75,-1562.5 175.75,-1562.5 175.75,-1526.5 229.75,-1526.5 229.75,-1562.5"/>
<text xml:space="preserve" text-anchor="middle" x="202.75" y="-1539.45" font-family="Times New Roman,serif" font-size="14.00">if 3</text>
</g>
<!-- n17&#45;&gt;n18 -->
<g id="edge21" class="edge">
<title>n17&#45;&gt;n18</title>
<path fill="none" stroke="black" d="M202.75,-1614.91C202.75,-1603.26 202.75,-1587.55 202.75,-1574.02"/>
<polygon fill="black" stroke="black" points="206.25,-1574.36 202.75,-1564.36 199.25,-1574.36 206.25,-1574.36"/>
<text xml:space="preserve" text-anchor="middle" x="215.5" y="-1583.7" font-family="Times New Roman,serif" font-size="14.00">True</text>
</g>
<!-- n23 -->
<g id="node24" class="node">
<title>n23</title>
<polygon fill="none" stroke="black" points="237.75,-1166.5 183.75,-1166.5 183.75,-1130.5 237.75,-1130.5 237.75,-1166.5"/>
<text xml:space="preserve" text-anchor="middle" x="210.75" y="-1143.45" font-family="Times New Roman,serif" font-size="14.00">join</text>
</g>
<!-- n17&#45;&gt;n23 -->
<g id="edge22" class="edge">
<title>n17&#45;&gt;n23</title>
<path fill="none" stroke="black" d="M230.12,-1625.04C264.98,-1614.33 320.75,-1590.21 320.75,-1545.5 320.75,-1545.5 320.75,-1545.5 320.75,-1220.5 320.75,-1185.43 280.78,-1166.84 249.03,-1157.61"/>
<polygon fill="black" stroke="black" points="250.25,-1154.31 239.69,-1155.11 248.44,-1161.07 250.25,-1154.31"/>
<text xml:space="preserve" text-anchor="middle" x="335" y="-1362.45" font-family="Times New Roman,serif" font-size="14.00">False</text>
</g>
<!-- n19 -->
<g id="node20" class="node">
<title>n19</title>
<polygon fill="none" stroke="black" points="284.5,-1474 195,-1474 195,-1438 284.5,-1438 284.5,-1474"/>
<text xml:space="preserve" text-anchor="middle" x="239.75" y="-1450.95" font-family="Times New Roman,serif" font-size="14.00">(x = (x + 1));</text>
</g>
<!-- n18&#45;&gt;n19 -->
<g id="edge23" class="edge">
<title>n18&#45;&gt;n19</title>
<path fill="none" stroke="black" d="M210.06,-1526.41C215.15,-1514.52 222.04,-1498.41 227.9,-1484.7"/>
<polygon fill="black" stroke="black" points="231.02,-1486.31 231.73,-1475.74 224.58,-1483.56 231.02,-1486.31"/>
<text xml:space="preserve" text-anchor="middle" x="237.31" y="-1495.2" font-family="Times New Roman,serif" font-size="14.00">True</text>
</g>
<!-- n21 -->
<g id="node22" class="node">
<title>n21</title>
<polygon fill="none" stroke="black" points="237.75,-1312.5 183.75,-1312.5 183.75,-1276.5 237.75,-1276.5 237.75,-1312.5"/>
<text xml:space="preserve" text-anchor="middle" x="210.75" y="-1289.45" font-family="Times New Roman,serif" font-size="14.00">join</text>
</g>
<!-- n18&#45;&gt;n21 -->
<g id="edge24" class="edge">
<title>n18&#45;&gt;n21</title>
<path fill="none" stroke="black" d="M197.23,-1526C193.14,-1512.08 187.92,-1492.01 185.75,-1474 179.13,-1419.06 173.85,-1403.54 185.75,-1349.5 187.73,-1340.52 191.35,-1331.26 195.24,-1322.99"/>
<polygon fill="black" stroke="black" points="198.31,-1324.67 199.7,-1314.17 192.07,-1321.51 198.31,-1324.67"/>
<text xml:space="preserve" text-anchor="middle" x="193.52" y="-1406.7" font-family="Times New Roman,serif" font-size="14.00">False</text>
</g>
<!-- n20 -->
<g id="node21" class="node">
<title>n20</title>
<polygon fill="none" stroke="black" points="284.5,-1385.5 195,-1385.5 195,-1349.5 284.5,-1349.5 284.5,-1385.5"/>
<text xml:space="preserve" text-anchor="middle" x="239.75" y="-1362.45" font-family="Times New Roman,serif" font-size="14.00">(x = (x + 2));</text>
</g>
<!-- n19&#45;&gt;n20 -->
<g id="edge25" class="edge">
<title>n19&#45;&gt;n20</title>
<path fill="none" stroke="black" d="M239.75,-1437.91C239.75,-1426.26 239.75,-1410.55 239.75,-1397.02"/>
<polygon fill="black" stroke="black" points="243.25,-1397.36 239.75,-1387.36 236.25,-1397.36 243.25,-1397.36"/>
</g>
<!-- n20&#45;&gt;n21 -->
<g id="edge26" class="edge">
<title>n20&#45;&gt;n21</title>
<path fill="none" stroke="black" d="M232.73,-1349.31C229.52,-1341.46 225.65,-1331.97 222.05,-1323.16"/>
<polygon fill="black" stroke="black" points="225.3,-1321.86 218.28,-1313.93 218.82,-1324.51 225.3,-1321.86"/>
</g>
<!-- n22 -->
<g id="node23" class="node">
<title>n22</title>
<polygon fill="none" stroke="black" points="255.5,-1239.5 166,-1239.5 166,-1203.5 255.5,-1203.5 255.5,-1239.5"/>
<text xml:space="preserve" text-anchor="middle" x="210.75" y="-1216.45" font-family="Times New Roman,serif" font-size="14.00">(x = (x + 3));</text>
</g>
<!-- n21&#45;&gt;n22 -->
<g id="edge27" class="edge">
<title>n21&#45;&gt;n22</title>
<path fill="none" stroke="black" d="M210.75,-1276.31C210.75,-1268.73 210.75,-1259.6 210.75,-1251.04"/>
<polygon fill="black" stroke="black" points="214.25,-1251.04 210.75,-1241.04 207.25,-1251.04 214.25,-1251.04"/>
</g>
<!-- n22&#45;&gt;n23 -->
<g id="edge28" class="edge">
<title>n22&#45;&gt;n23</title>
<path fill="none" stroke="black" d="M210.75,-1203.31C210.75,-1195.73 210.75,-1186.6 210.75,-1178.04"/>
<polygon fill="black" stroke="black" points="214.25,-1178.04 210.75,-1168.04 207.25,-1178.04 214.25,-1178.04"/>
</g>
<!-- n23&#45;&gt;n24 -->
<g id="edge29" class="edge">
<title>n23&#45;&gt;n24</title>
<path fill="none" stroke="black" d="M189.21,-1130.31C178.14,-1121.48 164.46,-1110.57 152.32,-1100.89"/>
<polygon fill="black" stroke="black" points="154.59,-1098.22 144.59,-1094.72 150.22,-1103.69 154.59,-1098.22"/>
</g>
<!-- n25 -->
<g id="node26" class="node">
<title>n25</title>
<polygon fill="none" stroke="black" points="154.5,-1020.5 89,-1020.5 89,-984.5 154.5,-984.5 154.5,-1020.5"/>
<text xml:space="preserve" text-anchor="middle" x="121.75" y="-997.45" font-family="Times New Roman,serif" font-size="14.00">if (a &gt; 3)</text>
</g>
<!-- n24&#45;&gt;n25 -->
<g id="edge30" class="edge">
<title>n24&#45;&gt;n25</title>
<path fill="none" stroke="black" d="M121.75,-1057.31C121.75,-1049.73 121.75,-1040.6 121.75,-1032.04"/>
<polygon fill="black" stroke="black" points="125.25,-1032.04 121.75,-1022.04 118.25,-1032.04 125.25,-1032.04"/>
</g>
<!-- n26 -->
<g id="node27" class="node">
<title>n26</title>
<polygon fill="none" stroke="black" points="223.5,-932 134,-932 134,-896 223.5,-896 223.5,-932"/>
<text xml:space="preserve" text-anchor="middle" x="178.75" y="-908.95" font-family="Times New Roman,serif" font-size="14.00">(x = (x + 1));</text>
</g>
<!-- n25&#45;&gt;n26 -->
<g id="edge31" class="edge">
<title>n25&#45;&gt;n26</title>
<path fill="none" stroke="black" d="M133.01,-984.41C141,-972.29 151.88,-955.77 161.03,-941.89"/>
<polygon fill="black" stroke="black" points="163.9,-943.89 166.48,-933.61 158.06,-940.04 163.9,-943.89"/>
<text xml:space="preserve" text-anchor="middle" x="168.11" y="-953.2" font-family="Times New Roman,serif" font-size="14.00">True</text>
</g>
<!-- n28 -->
<g id="node29" class="node">
<title>n28</title>
<polygon fill="none" stroke="black" points="144.75,-770.5 90.75,-770.5 90.75,-734.5 144.75,-734.5 144.75,-770.5"/>
<text xml:space="preserve" text-anchor="middle" x="117.75" y="-747.45" font-family="Times New Roman,serif" font-size="14.00">join</text>
</g>
<!-- n25&#45;&gt;n28 -->
<g id="edge32" class="edge">
<title>n25&#45;&gt;n28</title>
<path fill="none" stroke="black" d="M121.47,-984.06C120.79,-941.91 119.05,-834.13 118.21,-782.26"/>
<polygon fill="black" stroke="black" points="121.72,-782.38 118.06,-772.43 114.72,-782.49 121.72,-782.38"/>
<text xml:space="preserve" text-anchor="middle" x="134" y="-864.7" font-family="Times New Roman,serif" font-size="14.00">False</text>
</g>
<!-- n27 -->
<g id="node28" class="node">
<title>n27</title>
<polygon fill="none" stroke="black" points="223.5,-843.5 134,-843.5 134,-807.5 223.5,-807.5 223.5,-843.5"/>
<text xml:space="preserve" text-anchor="middle" x="178.75" y="-820.45" font-family="Times New Roman,serif" font-size="14.00">(x = (x + 2));</text>
</g>
<!-- n26&#45;&gt;n27 -->
<g id="edge33" class="edge">
<title>n26&#45;&gt;n27</title>
<path fill="none" stroke="black" d="M178.75,-895.91C178.75,-884.26 178.75,-868.55 178.75,-855.02"/>
<polygon fill="black" stroke="black" points="182.25,-855.36 178.75,-845.36 175.25,-855.36 182.25,-855.36"/>
</g>
<!-- n27&#45;&gt;n28 -->
<g id="edge34" class="edge">
<title>n27&#45;&gt;n28</title>
<path fill="none" stroke="black" d="M163.98,-807.31C156.72,-798.85 147.81,-788.48 139.76,-779.11"/>
<polygon fill="black" stroke="black" points="142.54,-776.98 133.37,-771.68 137.23,-781.54 142.54,-776.98"/>
</g>
<!-- n29 -->
<g id="node30" class="node">
<title>n29</title>
<polygon fill="none" stroke="black" points="145.25,-697.5 90.25,-697.5 90.25,-661.5 145.25,-661.5 145.25,-697.5"/>
<text xml:space="preserve" text-anchor="middle" x="117.75" y="-674.45" font-family="Times New Roman,serif" font-size="14.00">(i = 0);</text>
</g>
<!-- n28&#45;&gt;n29 -->
<g id="edge35" class="edge">
<title>n28&#45;&gt;n29</title>
<path fill="none" stroke="black" d="M117.75,-734.31C117.75,-726.73 117.75,-717.6 117.75,-709.04"/>
<polygon fill="black" stroke="black" points="121.25,-709.04 117.75,-699.04 114.25,-709.04 121.25,-709.04"/>
</g>
<!-- n30 -->
<g id="node31" class="node">
<title>n30</title>
<polygon fill="none" stroke="black" points="163.62,-624.5 71.88,-624.5 71.88,-588.5 163.62,-588.5 163.62,-624.5"/>
<text xml:space="preserve" text-anchor="middle" x="117.75" y="-601.45" font-family="Times New Roman,serif" font-size="14.00">while (i &lt; 10)</text>
</g>
<!-- n29&#45;&gt;n30 -->
<g id="edge36" class="edge">
<title>n29&#45;&gt;n30</title>
<path fill="none" stroke="black" d="M117.75,-661.31C117.75,-653.73 117.75,-644.6 117.75,-636.04"/>
<polygon fill="black" stroke="black" points="121.25,-636.04 117.75,-626.04 114.25,-636.04 121.25,-636.04"/>
</g>
<!-- n31 -->
<g id="node32" class="node">
<title>n31</title>
<polygon fill="none" stroke="black" points="169.5,-182 92,-182 92,-146 169.5,-146 169.5,-182"/>
<text xml:space="preserve" text-anchor="middle" x="130.75" y="-158.95" font-family="Times New Roman,serif" font-size="14.00">after_while</text>
</g>
<!-- n30&#45;&gt;n31 -->
<g id="edge38" class="edge">
<title>n30&#45;&gt;n31</title>
<path fill="none" stroke="black" d="M102.85,-588.25C90.09,-571.65 73.75,-545.28 73.75,-519 73.75,-519 73.75,-519 73.75,-251.5 73.75,-228.28 88.24,-206.49 102.62,-190.58"/>
<polygon fill="black" stroke="black" points="105.04,-193.11 109.44,-183.47 99.99,-188.26 105.04,-193.11"/>
<text xml:space="preserve" text-anchor="middle" x="88" y="-380.2" font-family="Times New Roman,serif" font-size="14.00">False</text>
</g>
<!-- n32 -->
<g id="node33" class="node">
<title>n32</title>
<polygon fill="none" stroke="black" points="220.5,-536 155,-536 155,-500 220.5,-500 220.5,-536"/>
<text xml:space="preserve" text-anchor="middle" x="187.75" y="-512.95" font-family="Times New Roman,serif" font-size="14.00">if (a &gt; b)</text>
</g>
<!-- n30&#45;&gt;n32 -->
<g id="edge37" class="edge">
<title>n30&#45;&gt;n32</title>
<path fill="none" stroke="black" d="M131.58,-588.41C141.58,-576.05 155.28,-559.13 166.64,-545.08"/>
<polygon fill="black" stroke="black" points="169.19,-547.5 172.76,-537.53 163.75,-543.1 169.19,-547.5"/>
<text xml:space="preserve" text-anchor="middle" x="171.77" y="-557.2" font-family="Times New Roman,serif" font-size="14.00">True</text>
</g>
<!-- n39 -->
<g id="node40" class="node">
<title>n39</title>
<polygon fill="none" stroke="black" points="170.25,-109 91.25,-109 91.25,-73 170.25,-73 170.25,-109"/>
<text xml:space="preserve" text-anchor="middle" x="130.75" y="-85.95" font-family="Times New Roman,serif" font-size="14.00">(main = x);</text>
</g>
<!-- n31&#45;&gt;n39 -->
<g id="edge39" class="edge">
<title>n31&#45;&gt;n39</title>
<path fill="none" stroke="black" d="M130.75,-145.81C130.75,-138.23 130.75,-129.1 130.75,-120.54"/>
<polygon fill="black" stroke="black" points="134.25,-120.54 130.75,-110.54 127.25,-120.54 134.25,-120.54"/>
</g>
<!-- n33 -->
<g id="node34" class="node">
<title>n33</title>
<polygon fill="none" stroke="black" points="229.5,-447.5 146,-447.5 146,-411.5 229.5,-411.5 229.5,-447.5"/>
<text xml:space="preserve" text-anchor="middle" x="187.75" y="-424.45" font-family="Times New Roman,serif" font-size="14.00">(i = (i + 2));</text>
</g>
<!-- n32&#45;&gt;n33 -->
<g id="edge40" class="edge">
<title>n32&#45;&gt;n33</title>
<path fill="none" stroke="black" d="M187.75,-499.91C187.75,-488.26 187.75,-472.55 187.75,-459.02"/>
<polygon fill="black" stroke="black" points="191.25,-459.36 187.75,-449.36 184.25,-459.36 191.25,-459.36"/>
<text xml:space="preserve" text-anchor="middle" x="200.5" y="-468.7" font-family="Times New Roman,serif" font-size="14.00">True</text>
</g>
<!-- n38 -->
<g id="node39" class="node">
<title>n38</title>
<polygon fill="none" stroke="black" points="284.75,-182 230.75,-182 230.75,-146 284.75,-146 284.75,-182"/>
<text xml:space="preserve" text-anchor="middle" x="257.75" y="-158.95" font-family="Times New Roman,serif" font-size="14.00">join</text>
</g>
<!-- n32&#45;&gt;n38 -->
<g id="edge41" class="edge">
<title>n32&#45;&gt;n38</title>
<path fill="none" stroke="black" d="M220.9,-513.79C267.77,-507.23 347.75,-487.65 347.75,-430.5 347.75,-430.5 347.75,-430.5 347.75,-251.5 347.75,-220.64 319.91,-197.35 295.2,-182.76"/>
<polygon fill="black" stroke="black" points="297.01,-179.76 286.56,-177.96 293.6,-185.88 297.01,-179.76"/>
<text xml:space="preserve" text-anchor="middle" x="362" y="-335.95" font-family="Times New Roman,serif" font-size="14.00">False</text>
</g>
<!-- n34 -->
<g id="node35" class="node">
<title>n34</title>
<polygon fill="none" stroke="black" points="210.12,-359 145.38,-359 145.38,-323 210.12,-323 210.12,-359"/>
<text xml:space="preserve" text-anchor="middle" x="177.75" y="-335.95" font-family="Times New Roman,serif" font-size="14.00">if (2 * 3)</text>
</g>
<!-- n33&#45;&gt;n34 -->
<g id="edge42" class="edge">
<title>n33&#45;&gt;n34</title>
<path fill="none" stroke="black" d="M185.77,-411.41C184.43,-399.76 182.61,-384.05 181.05,-370.52"/>
<polygon fill="black" stroke="black" points="184.55,-370.39 179.93,-360.85 177.6,-371.19 184.55,-370.39"/>
</g>
<!-- n35 -->
<g id="node36" class="node">
<title>n35</title>
<polygon fill="none" stroke="black" points="201.75,-270.5 147.75,-270.5 147.75,-234.5 201.75,-234.5 201.75,-270.5"/>
<text xml:space="preserve" text-anchor="middle" x="174.75" y="-247.45" font-family="Times New Roman,serif" font-size="14.00">break</text>
</g>
<!-- n34&#45;&gt;n35 -->
<g id="edge43" class="edge">
<title>n34&#45;&gt;n35</title>
<path fill="none" stroke="black" d="M177.16,-322.91C176.75,-311.26 176.21,-295.55 175.74,-282.02"/>
<polygon fill="black" stroke="black" points="179.25,-282.24 175.4,-272.36 172.25,-282.48 179.25,-282.24"/>
<text xml:space="preserve" text-anchor="middle" x="189.27" y="-291.7" font-family="Times New Roman,serif" font-size="14.00">True</text>
</g>
<!-- n37 -->
<g id="node38" class="node">
<title>n37</title>
<polygon fill="none" stroke="black" points="284.75,-270.5 230.75,-270.5 230.75,-234.5 284.75,-234.5 284.75,-270.5"/>
<text xml:space="preserve" text-anchor="middle" x="257.75" y="-247.45" font-family="Times New Roman,serif" font-size="14.00">join</text>
</g>
<!-- n34&#45;&gt;n37 -->
<g id="edge44" class="edge">
<title>n34&#45;&gt;n37</title>
<path fill="none" stroke="black" d="M193.56,-322.91C205.09,-310.43 220.94,-293.3 234,-279.18"/>
<polygon fill="black" stroke="black" points="236.46,-281.68 240.68,-271.96 231.32,-276.93 236.46,-281.68"/>
<text xml:space="preserve" text-anchor="middle" x="239.17" y="-291.7" font-family="Times New Roman,serif" font-size="14.00">False</text>
</g>
<!-- n35&#45;&gt;n31 -->
<g id="edge45" class="edge">
<title>n35&#45;&gt;n31</title>
<path fill="none" stroke="black" d="M166.06,-234.41C159.95,-222.4 151.65,-206.09 144.63,-192.3"/>
<polygon fill="black" stroke="black" points="147.92,-191.03 140.26,-183.7 141.68,-194.2 147.92,-191.03"/>
<text xml:space="preserve" text-anchor="middle" x="171.69" y="-203.2" font-family="Times New Roman,serif" font-size="14.00">break</text>
</g>
<!-- n36 -->
<g id="node37" class="node">
<title>n36</title>
<polygon fill="none" stroke="black" points="311.5,-359 228,-359 228,-323 311.5,-323 311.5,-359"/>
<text xml:space="preserve" text-anchor="middle" x="269.75" y="-335.95" font-family="Times New Roman,serif" font-size="14.00">(i = (i + 1));</text>
</g>
<!-- n36&#45;&gt;n37 -->
<g id="edge46" class="edge">
<title>n36&#45;&gt;n37</title>
<path fill="none" stroke="black" d="M267.38,-322.91C265.76,-311.26 263.58,-295.55 261.71,-282.02"/>
<polygon fill="black" stroke="black" points="265.21,-281.77 260.36,-272.35 258.27,-282.74 265.21,-281.77"/>
</g>
<!-- n37&#45;&gt;n38 -->
<g id="edge47" class="edge">
<title>n37&#45;&gt;n38</title>
<path fill="none" stroke="black" d="M257.75,-234.41C257.75,-222.76 257.75,-207.05 257.75,-193.52"/>
<polygon fill="black" stroke="black" points="261.25,-193.86 257.75,-183.86 254.25,-193.86 261.25,-193.86"/>
</g>
<!-- n38&#45;&gt;n30 -->
<g id="edge48" class="edge">
<title>n38&#45;&gt;n30</title>
<path fill="none" stroke="black" d="M230.27,-170.95C201.21,-177.69 157.81,-189.13 144.75,-200 124.89,-216.53 117.75,-225.66 117.75,-251.5 117.75,-519 117.75,-519 117.75,-519 117.75,-538.33 117.75,-560.1 117.75,-576.96"/>
<polygon fill="black" stroke="black" points="114.25,-576.75 117.75,-586.75 121.25,-576.75 114.25,-576.75"/>
</g>
<!-- n39&#45;&gt;n1 -->
<g id="edge49" class="edge">
<title>n39&#45;&gt;n1</title>
<path fill="none" stroke="black" d="M130.75,-72.81C130.75,-65.23 130.75,-56.1 130.75,-47.54"/>
<polygon fill="black" stroke="black" points="134.25,-47.54 130.75,-37.54 127.25,-47.54 134.25,-47.54"/>
</g>
</g>
</svg>
