<?xml version="1.0" encoding="UTF-8" standalone="no"?>
<!DOCTYPE svg PUBLIC "-//W3C//DTD SVG 1.1//EN"
 "http://www.w3.org/Graphics/SVG/1.1/DTD/svg11.dtd">
<!-- Generated by graphviz version 14.1.1 (20251213.1925)
 -->
<!-- Title: x Pages: 1 -->
<svg width="103pt" height="404pt"
 viewBox="0.00 0.00 103.00 404.00" xmlns="http://www.w3.org/2000/svg" xmlns:xlink="http://www.w3.org/1999/xlink">
<g id="graph0" class="graph" transform="scale(1 1) rotate(0) translate(4 400)">
<title>x</title>
<polygon fill="white" stroke="none" points="-4,4 -4,-400 98.75,-400 98.75,4 -4,4"/>
<!-- n0 -->
<g id="node1" class="node">
<title>n0</title>
<polygon fill="none" stroke="black" points="77.5,-396 17.25,-396 17.25,-360 77.5,-360 77.5,-396"/>
<text xml:space="preserve" text-anchor="middle" x="47.38" y="-372.95" font-family="Times New Roman,serif" font-size="14.00">ENTRY</text>
</g>
<!-- n2 -->
<g id="node3" class="node">
<title>n2</title>
<polygon fill="none" stroke="black" points="94.75,-324 0,-324 0,-288 94.75,-288 94.75,-324"/>
<text xml:space="preserve" text-anchor="middle" x="47.38" y="-300.95" font-family="Times New Roman,serif" font-size="14.00">dim a, b as int</text>
</g>
<!-- n0&#45;&gt;n2 -->
<g id="edge1" class="edge">
<title>n0&#45;&gt;n2</title>
<path fill="none" stroke="black" d="M47.38,-359.7C47.38,-352.41 47.38,-343.73 47.38,-335.54"/>
<polygon fill="black" stroke="black" points="50.88,-335.62 47.38,-325.62 43.88,-335.62 50.88,-335.62"/>
</g>
<!-- n1 -->
<g id="node2" class="node">
<title>n1</title>
<polygon fill="none" stroke="black" points="74.38,-36 20.38,-36 20.38,0 74.38,0 74.38,-36"/>
<text xml:space="preserve" text-anchor="middle" x="47.38" y="-12.95" font-family="Times New Roman,serif" font-size="14.00">EXIT</text>
</g>
<!-- n3 -->
<g id="node4" class="node">
<title>n3</title>
<polygon fill="none" stroke="black" points="76,-252 18.75,-252 18.75,-216 76,-216 76,-252"/>
<text xml:space="preserve" text-anchor="middle" x="47.38" y="-228.95" font-family="Times New Roman,serif" font-size="14.00">(a = 0);</text>
</g>
<!-- n2&#45;&gt;n3 -->
<g id="edge2" class="edge">
<title>n2&#45;&gt;n3</title>
<path fill="none" stroke="black" d="M47.38,-287.7C47.38,-280.41 47.38,-271.73 47.38,-263.54"/>
<polygon fill="black" stroke="black" points="50.88,-263.62 47.38,-253.62 43.88,-263.62 50.88,-263.62"/>
</g>
<!-- n4 -->
<g id="node5" class="node">
<title>n4</title>
<polygon fill="none" stroke="black" points="76.38,-180 18.38,-180 18.38,-144 76.38,-144 76.38,-180"/>
<text xml:space="preserve" text-anchor="middle" x="47.38" y="-156.95" font-family="Times New Roman,serif" font-size="14.00">(b = 0);</text>
</g>
<!-- n3&#45;&gt;n4 -->
<g id="edge3" class="edge">
<title>n3&#45;&gt;n4</title>
<path fill="none" stroke="black" d="M47.38,-215.7C47.38,-208.41 47.38,-199.73 47.38,-191.54"/>
<polygon fill="black" stroke="black" points="50.88,-191.62 47.38,-181.62 43.88,-191.62 50.88,-191.62"/>
</g>
<!-- n5 -->
<g id="node6" class="node">
<title>n5</title>
<polygon fill="none" stroke="black" points="76.38,-108 18.38,-108 18.38,-72 76.38,-72 76.38,-108"/>
<text xml:space="preserve" text-anchor="middle" x="47.38" y="-84.95" font-family="Times New Roman,serif" font-size="14.00">(x = 0);</text>
</g>
<!-- n4&#45;&gt;n5 -->
<g id="edge4" class="edge">
<title>n4&#45;&gt;n5</title>
<path fill="none" stroke="black" d="M47.38,-143.7C47.38,-136.41 47.38,-127.73 47.38,-119.54"/>
<polygon fill="black" stroke="black" points="50.88,-119.62 47.38,-109.62 43.88,-119.62 50.88,-119.62"/>
</g>
<!-- n5&#45;&gt;n1 -->
<g id="edge5" class="edge">
<title>n5&#45;&gt;n1</title>
<path fill="none" stroke="black" d="M47.38,-71.7C47.38,-64.41 47.38,-55.73 47.38,-47.54"/>
<polygon fill="black" stroke="black" points="50.88,-47.62 47.38,-37.62 43.88,-47.62 50.88,-47.62"/>
</g>
</g>
</svg>
