<?xml version="1.0" encoding="UTF-8" standalone="no"?>
<!DOCTYPE svg PUBLIC "-//W3C//DTD SVG 1.1//EN"
 "http://www.w3.org/Graphics/SVG/1.1/DTD/svg11.dtd">
<!-- Generated by graphviz version 14.1.1 (20251213.1925)
 -->
<!-- Title: y Pages: 1 -->
<svg width="68pt" height="188pt"
 viewBox="0.00 0.00 68.00 188.00" xmlns="http://www.w3.org/2000/svg" xmlns:xlink="http://www.w3.org/1999/xlink">
<g id="graph0" class="graph" transform="scale(1 1) rotate(0) translate(4 184)">
<title>y</title>
<polygon fill="white" stroke="none" points="-4,4 -4,-184 64.25,-184 64.25,4 -4,4"/>
<!-- n0 -->
<g id="node1" class="node">
<title>n0</title>
<polygon fill="none" stroke="black" points="60.25,-180 0,-180 0,-144 60.25,-144 60.25,-180"/>
<text xml:space="preserve" text-anchor="middle" x="30.12" y="-156.95" font-family="Times New Roman,serif" font-size="14.00">ENTRY</text>
</g>
<!-- n2 -->
<g id="node3" class="node">
<title>n2</title>
<polygon fill="none" stroke="black" points="59.12,-108 1.12,-108 1.12,-72 59.12,-72 59.12,-108"/>
<text xml:space="preserve" text-anchor="middle" x="30.12" y="-84.95" font-family="Times New Roman,serif" font-size="14.00">(y = 0);</text>
</g>
<!-- n0&#45;&gt;n2 -->
<g id="edge1" class="edge">
<title>n0&#45;&gt;n2</title>
<path fill="none" stroke="black" d="M30.12,-143.7C30.12,-136.41 30.12,-127.73 30.12,-119.54"/>
<polygon fill="black" stroke="black" points="33.63,-119.62 30.13,-109.62 26.63,-119.62 33.63,-119.62"/>
</g>
<!-- n1 -->
<g id="node2" class="node">
<title>n1</title>
<polygon fill="none" stroke="black" points="57.12,-36 3.12,-36 3.12,0 57.12,0 57.12,-36"/>
<text xml:space="preserve" text-anchor="middle" x="30.12" y="-12.95" font-family="Times New Roman,serif" font-size="14.00">EXIT</text>
</g>
<!-- n2&#45;&gt;n1 -->
<g id="edge2" class="edge">
<title>n2&#45;&gt;n1</title>
<path fill="none" stroke="black" d="M30.12,-71.7C30.12,-64.41 30.12,-55.73 30.12,-47.54"/>
<polygon fill="black" stroke="black" points="33.63,-47.62 30.13,-37.62 26.63,-47.62 33.63,-47.62"/>
</g>
</g>
</svg>
